# xmcd CD database file
# Copyright (C) 1996 Ti Kan
#
# Track frame offsets:
# 	150
# 	11172
# 	22117
# 	35252
# 	50995
# 	68897
# 	83085
# 	96910
# 	111200
# 	126915
#
# Disc length: 1944 seconds
#
# Revision: 1
# Processed by: cddbd v1.4b41PL1 Copyright (c) Steve Scherf et al.
# Submitted via: DiscPlay 3.4.1
#
DISCID=8907960a
DTITLE=Dennis Robbins - Man With A Plan
DYEAR=1900
DGENRE=
TTITLE0=Home Sweet Home
TTITLE1=Paris, Tennessee
TTITLE2=Good News, Bad News
TTITLE3=My Side Of Town
TTITLE4=I Am Just A Rebel
TTITLE5=Man With A Plan
TTITLE6=Hi O Silver
TTITLE7=The Chapel Of The Friendly Bells
TTITLE8=The Only Slide I Ever Played On
TTITLE9=All The Way To San Antone
EXTD=
EXTT0=
EXTT1=
EXTT2=
EXTT3=
EXTT4=
EXTT5=
EXTT6=
EXTT7=
EXTT8=
EXTT9=
PLAYORDER=
